<svg width="32" height="32" viewBox="0 0 32 32" fill="none" xmlns="http://www.w3.org/2000/svg">
<path d="M1.99998 31C2.17718 30.9997 2.35111 30.9523 2.50397 30.8627C2.65684 30.773 2.78315 30.6444 2.86998 30.49C2.91998 30.4 7.45998 22.41 12.5 24.87C13 25.19 16.24 27.13 19.63 26.29C20.6916 25.9941 21.6771 25.473 22.5192 24.762C23.3613 24.0511 24.0403 23.167 24.51 22.17C25.5367 20.1502 25.8873 17.854 25.51 15.62C25.23 13.74 25.51 11.11 26.85 9.79996C27.2446 9.42823 27.7249 9.15977 28.2483 9.01846C28.7717 8.87714 29.3219 8.86735 29.85 8.98996C30.0465 9.02 30.2475 8.9908 30.4273 8.90608C30.6071 8.82137 30.7576 8.68499 30.8595 8.51435C30.9615 8.34372 31.0103 8.14657 30.9997 7.94808C30.9891 7.74958 30.9195 7.55876 30.8 7.39996C30.46 6.99996 27.4 2.99996 24 2.99996C22.652 2.98408 21.3289 3.36283 20.1935 4.08955C19.0581 4.81627 18.16 5.85923 17.61 7.08996C16.3 5.83996 14.06 4.25996 11.68 5.08996C9.75998 5.72996 4.95998 4.21996 2.38998 3.08996C2.22586 3.02247 2.04675 2.99987 1.87101 3.02447C1.69528 3.04908 1.52925 3.12 1.38998 3.22996C1.24205 3.34596 1.1298 3.5013 1.06613 3.67817C1.00245 3.85505 0.989925 4.04629 1.02998 4.22996C1.09998 4.65996 2.83998 13.79 9.39998 17.87C6.20998 19.18 0.999979 22.54 0.999979 30C0.992794 30.2271 1.06315 30.4498 1.19948 30.6316C1.3358 30.8133 1.52996 30.9433 1.74998 31C1.83303 31.0097 1.91693 31.0097 1.99998 31ZM10.46 22.37C7.68998 22.37 5.30998 24.24 3.63998 26.07C5.63998 20.36 11.88 19.07 12.2 18.98C12.414 18.9376 12.6084 18.8265 12.7533 18.6634C12.8983 18.5004 12.986 18.2944 13.003 18.0768C13.02 17.8593 12.9654 17.6422 12.8475 17.4586C12.7296 17.275 12.5549 17.135 12.35 17.06C6.87998 15.06 4.34998 8.75996 3.44998 5.63996C5.85998 6.50996 9.99998 7.72996 12.32 6.99996C14.64 6.26996 17.17 9.56996 17.2 9.59996C17.3138 9.76065 17.4726 9.88415 17.6563 9.95498C17.8401 10.0258 18.0407 10.0408 18.2329 9.99807C18.4251 9.95535 18.6005 9.85682 18.7369 9.71484C18.8734 9.57286 18.9649 9.39374 19 9.19996C19 8.99996 19.9 4.99996 24 4.99996C25.3 4.99996 26.75 6.05996 27.83 7.07996C26.9344 7.28243 26.1155 7.737 25.47 8.38996C23.54 10.32 23.24 13.65 23.57 15.91C23.8758 17.7221 23.5882 19.5845 22.75 21.22C22.4056 21.9667 21.9066 22.6319 21.286 23.1715C20.6654 23.7111 19.9374 24.1127 19.15 24.35C16.43 25.03 13.58 23.19 13.55 23.17C13.5214 23.1429 13.4873 23.1224 13.45 23.11C12.5262 22.6295 11.5013 22.3758 10.46 22.37Z" fill="#FBFBFB"/>
<path d="M24.91 25.8C25.0644 25.8012 25.217 25.7666 25.3558 25.6989C25.4945 25.6312 25.6158 25.5324 25.71 25.41C26.1357 24.8437 26.5168 24.2452 26.85 23.62C28.1859 21.0433 28.6524 18.1037 28.18 15.24C28.0785 14.518 28.0384 13.7887 28.06 13.06C28.0639 12.9287 28.042 12.7979 27.9953 12.675C27.9487 12.5522 27.8784 12.4397 27.7883 12.3441C27.6982 12.2485 27.5902 12.1715 27.4704 12.1176C27.3506 12.0637 27.2213 12.0339 27.09 12.03C26.9587 12.0261 26.8278 12.048 26.705 12.0946C26.5822 12.1412 26.4697 12.2116 26.3741 12.3017C26.2784 12.3917 26.2015 12.4998 26.1476 12.6196C26.0937 12.7394 26.0639 12.8687 26.06 13C26.0352 13.8458 26.082 14.6921 26.2 15.53C26.6133 17.9674 26.2237 20.4731 25.09 22.67C24.7943 23.2005 24.4601 23.7085 24.09 24.19C23.9287 24.3997 23.8571 24.6648 23.8908 24.9272C23.9245 25.1896 24.0609 25.4279 24.27 25.59C24.4526 25.7319 24.6788 25.8061 24.91 25.8ZM21.95 28.32C22.1065 28.3191 22.2607 28.2814 22.4 28.21C22.7899 28.0157 23.1644 27.7917 23.52 27.54C23.7155 27.3798 23.8432 27.1515 23.8772 26.901C23.9113 26.6505 23.8492 26.3964 23.7034 26.1899C23.5577 25.9833 23.3392 25.8396 23.0918 25.7877C22.8443 25.7358 22.5865 25.7795 22.37 25.91C22.096 26.1005 21.8085 26.2709 21.51 26.42C21.3059 26.5188 21.1415 26.684 21.0437 26.8885C20.9459 27.0931 20.9205 27.3247 20.9716 27.5456C21.0228 27.7665 21.1475 27.9634 21.3252 28.1041C21.503 28.2448 21.7233 28.3209 21.95 28.32Z" fill="#FBFBFB"/>
<path d="M7.99996 11C8.23419 10.9974 8.46009 10.9127 8.63825 10.7606C8.8164 10.6085 8.93551 10.3987 8.97479 10.1678C9.01407 9.93683 8.97104 9.69943 8.85319 9.49698C8.73535 9.29454 8.55017 9.13988 8.32996 9.06C6.6286 8.43724 5.06086 7.49728 3.70996 6.29C3.61672 6.19676 3.50603 6.1228 3.38421 6.07234C3.26238 6.02188 3.13182 5.99591 2.99996 5.99591C2.8681 5.99591 2.73753 6.02188 2.61571 6.07234C2.49389 6.1228 2.3832 6.19676 2.28996 6.29C2.19672 6.38324 2.12276 6.49393 2.0723 6.61575C2.02184 6.73758 1.99587 6.86814 1.99587 7C1.99587 7.13186 2.02184 7.26243 2.0723 7.38425C2.12276 7.50607 2.19672 7.61676 2.28996 7.71C3.85078 9.14808 5.67865 10.2659 7.66996 11C7.77948 11.0145 7.89043 11.0145 7.99996 11Z" fill="#FBFBFB"/>
<path d="M9.99996 15C10.2342 14.9974 10.4601 14.9127 10.6382 14.7606C10.8164 14.6085 10.9355 14.3987 10.9748 14.1678C11.0141 13.9368 10.971 13.6994 10.8532 13.497C10.7353 13.2945 10.5502 13.1399 10.33 13.06C8.6286 12.4372 7.06086 11.4973 5.70996 10.29C5.52165 10.1017 5.26626 9.99591 4.99996 9.99591C4.73366 9.99591 4.47826 10.1017 4.28996 10.29C4.10166 10.4783 3.99587 10.7337 3.99587 11C3.99587 11.2663 4.10166 11.5217 4.28996 11.71C5.85078 13.1481 7.67865 14.2659 9.66996 15C9.77948 15.0145 9.89043 15.0145 9.99996 15Z" fill="#FBFBFB"/>
<path d="M23 8C22.4477 8 22 7.55228 22 7C22 6.44772 22.4477 6 23 6C23.5523 6 24 6.44772 24 7C24 7.55228 23.5523 8 23 8Z" fill="#FBFBFB"/>
</svg>
